<svg version="1.1" viewBox="0 0 96 96" xmlns="http://www.w3.org/2000/svg" xmlns:xlink="http://www.w3.org/1999/xlink" id="Icons_EarthGlobeEuropeAfrica" overflow="hidden"><g><path d=" M 48 10 C 27 10 10 27 10 48 C 10 69 27 86 48 86 C 69 86 86 69 86 48 C 86 27 69 10 48 10 Z M 48 82 C 29.3 82 14 66.7 14 48 C 14 29.3 29.3 14 48 14 C 52.9 14 57.5 15 61.7 16.9 L 58.5 19.5 C 58.1 19.8 57.7 20 57.2 20 L 55.3 20 C 55.1 20 54.8 20 54.6 19.9 C 54.6 19.9 49.7 17 46.9 17 C 44.2 17 39.8 18.7 37.9 20 C 35 21.9 38.1 22.8 38.8 23 C 38.9 23 39 23 39 23 L 41.8 23 C 42.5 23 43.1 22.7 43.5 22.1 L 44.6 20.4 C 44.8 20.1 45.1 20 45.4 20 L 47 20 L 44.9 23.5 C 44.4 24.4 43.4 25 42.3 25 L 39.6 25 C 39.2 25 38.8 25.1 38.5 25.3 L 36 27 L 34 27 C 33.4 27 33 27.4 33 28 L 33 29 C 33 29.6 32.6 30 32 30 L 31.1 30 C 30.4 30 29.8 30.3 29.4 30.9 L 28.2 32.8 C 28.1 33 28 33.2 28 33.4 L 28 34 C 28 34.6 28.4 35 29 35 L 32.6 35 C 32.9 35 33.1 34.9 33.3 34.7 L 36.4 31.6 C 36.8 31.2 37.3 31 37.8 31 L 38.2 31 C 38.7 31 39.1 31.3 39.2 31.8 L 39.8 34.3 C 39.9 34.7 40.3 35.1 40.8 35.1 L 41 35.1 C 41.6 35.1 42 34.7 42 34.1 L 42 31.5 C 42 31.2 42.1 31 42.3 30.8 L 43 30 L 43.8 32.3 C 43.9 32.7 44.3 33 44.7 33 L 45.6 33 C 45.9 33 46.1 32.9 46.3 32.7 L 46.7 32.3 C 46.9 32.1 47.1 32 47.4 32 L 48 32 C 48.6 32 49 32.4 49 33 L 49 34 C 49 34.6 49.4 35 50 35 L 53.6 35 C 54.3 35 54.8 35.7 54.5 36.3 L 54.2 37.2 C 54 37.7 53.6 38 53.1 37.9 L 48.3 37.1 C 48.1 37.1 47.8 37.1 47.6 37.1 L 43.5 37.9 C 43.1 38 42.8 37.9 42.4 37.8 C 41.1 37.3 37.5 36 36 36 C 24.1 36 24 44 24 47 C 24 51 26.3 54 30 54 C 34.4 54 40 53.8 40 62 L 40 68.2 C 40 69.4 40.4 70.5 41.2 71.4 L 44.1 74.9 C 44.7 75.6 45.5 76 46.4 76 L 48.8 76 C 49.6 76 50.4 75.7 50.9 75.1 L 53.3 72.7 C 53.8 72.2 54.1 71.7 54.4 71.1 L 56.4 67 C 56.7 66.3 56.9 65.5 56.9 64.8 L 56.9 60.2 C 56.9 59.4 57.2 58.6 57.8 58.1 L 63.1 52.8 C 63.5 52.4 63.5 51.6 63 51.3 C 63 51.3 57 47.9 53.7 41.5 C 53.4 40.8 53.8 40 54.6 40 L 55 40 L 60.7 47.4 C 61.4 48.3 62.7 48.4 63.6 47.7 L 66.9 44.9 C 67.4 44.5 67.4 43.6 66.8 43.3 L 63.8 41.5 C 63.4 41.2 63.2 40.7 63.4 40.2 L 63.5 40 C 63.8 39.5 64.4 39.3 64.9 39.6 L 68.5 41.8 C 68.8 42 69.2 42.1 69.5 42.1 L 70.6 42.1 C 71.4 42.1 72.1 42.6 72.4 43.3 L 75.3 49.9 C 75.6 50.6 76.3 51.1 77.1 51.1 L 77.1 51.1 C 78 51.1 78.8 50.3 78.8 49.4 L 78.8 46.6 C 78.8 46.3 78.9 46 79.2 45.8 L 81.5 44 C 81.7 45.3 81.8 46.7 81.8 48.1 C 82 66.7 66.7 82 48 82 Z"/><path d=" M 30 27 L 30 28 L 31 28 C 31.6 28 32 27.6 32 27 L 32 26 L 33 26 L 33 24.4 C 33 24.1 32.9 23.9 32.7 23.7 L 31.7 22.7 C 31.3 22.3 30.7 22.3 30.3 22.7 L 28.7 24.3 C 28.3 24.7 28.3 25.3 28.7 25.7 L 30 27 Z"/></g></svg>