<svg version="1.1" viewBox="0 0 96 96" xmlns="http://www.w3.org/2000/svg" xmlns:xlink="http://www.w3.org/1999/xlink" id="Icons_VideoCamera" overflow="hidden"><circle cx="25" cy="32" r="2"/><circle cx="25" cy="40" r="2"/><circle cx="21" cy="36" r="2"/><circle cx="29" cy="36" r="2"/><circle cx="53" cy="28" r="2"/><circle cx="53" cy="36" r="2"/><circle cx="49" cy="32" r="2"/><circle cx="57" cy="32" r="2"/><path d=" M 82 45 L 76 51 L 68 51 L 68 73 L 76 73 L 82 79 L 88 79 L 88 45 Z"/><path d=" M 53 41 C 48 41 44 37 44 32 C 44 27 48 23 53 23 C 58 23 62 27 62 32 C 62 37 58 41 53 41 Z M 56 73 C 54.9 73 54 72.1 54 71 C 54 69.9 54.9 69 56 69 C 57.1 69 58 69.9 58 71 C 58 72.1 57.1 73 56 73 Z M 37 45 C 38.3 43.2 39.3 41.2 39.7 38.9 C 41 41.4 43.1 43.5 45.5 45 L 37 45 Z M 25 45 C 20 45 16 41 16 36 C 16 31 20 27 25 27 C 30 27 34 31 34 36 C 34 41 30 45 25 45 Z M 60.4 45 C 64.9 42.4 68 37.6 68 32 C 68 23.7 61.3 17 53 17 C 45.7 17 39.7 22.2 38.3 29.1 C 35.8 24.3 30.8 21 25 21 C 16.7 21 10 27.7 10 36 C 10 40.9 12.4 45.2 16 48 L 16 51 L 14 51 L 12 49 L 8 49 L 8 59 L 12 59 L 14 57 L 16 57 L 16 75 C 16 77.2 17.8 79 20 79 L 60 79 C 62.2 79 64 77.2 64 75 L 64 49 C 64 46.9 62.4 45.2 60.4 45 Z"/></svg>