<svg version="1.1" viewBox="0 0 96 96" xmlns="http://www.w3.org/2000/svg" xmlns:xlink="http://www.w3.org/1999/xlink" id="Icons_Flask" overflow="hidden"><circle cx="50" cy="7" r="3"/><circle cx="55" cy="16" r="3"/><circle cx="44" cy="14" r="3"/><circle cx="46" cy="25" r="4"/><path d=" M 67.5 83.6 L 56 57.6 L 56 40 C 56 36.4 58.9 34.9 59 34.8 C 60 34.3 60.4 33.1 59.9 32.1 C 59.5 31.4 58.8 31 58 31 L 58 31 L 38 31 L 38 31 C 37.2 31 36.5 31.4 36.1 32.1 C 35.6 33.1 36 34.3 37 34.8 C 37 34.8 40 36.4 40 40 L 40 57.6 L 28.5 83.6 C 27.7 85.5 27.9 87.6 29 89.3 C 30.1 91 32 92 34 92 L 62 92 C 64 92 65.9 91 67 89.3 C 68.1 87.6 68.3 85.5 67.5 83.6 Z M 52 40 L 52 44 L 44 44 L 44 40 C 44 37.9 43.4 36.3 42.7 35 L 53.4 35 C 52.6 36.3 52 37.9 52 40 Z"/></svg>