<svg version="1.1" viewBox="0 0 96 96" xmlns="http://www.w3.org/2000/svg" xmlns:xlink="http://www.w3.org/1999/xlink" id="Icons_Dance" overflow="hidden"><circle cx="32.6" cy="27.4" r="6"/><circle cx="63.6" cy="17.4" r="6"/><path d=" M 91.6 23.4 C 90.4 22.2 88.6 22.2 87.4 23.4 L 83.2 27.6 L 77.2 23.2 C 76.4 22.6 75.4 22.4 74.6 22.8 L 60.6 26.8 C 60.2 27 59.6 27.2 59.4 27.6 L 54.2 32.8 L 47.4 32.8 C 45.8 32.8 44.4 34.2 44.4 35.8 C 44.4 37.4 45.8 38.8 47.4 38.8 L 55.4 38.8 C 56.2 38.8 57 38.4 57.6 38 L 63 32.6 L 67.2 45 L 57.8 51.2 C 56.8 51.8 56.4 53 56.4 54.2 L 58.4 68.2 C 58.6 69.6 59.8 70.8 61.4 70.8 C 61.6 70.8 61.6 70.8 61.8 70.8 C 63.4 70.6 64.6 69 64.4 67.4 L 62.6 55.2 L 70.8 49.8 L 68.6 54.6 C 68.4 55.2 68.2 55.6 68.4 56.2 L 70.4 70.2 C 70.6 71.6 71.8 72.8 73.4 72.8 C 73.6 72.8 73.6 72.8 73.8 72.8 C 75.4 72.6 76.6 71 76.4 69.4 L 74.6 56 L 79.2 45.6 C 79.2 45.6 79.6 44.2 79.6 43.6 C 79.6 42.8 79.2 41.6 79.2 41.6 L 76 29.6 L 81.6 33.8 C 82.8 34.6 84.4 34.6 85.6 33.6 L 91.6 27.6 C 92.8 26.4 92.8 24.6 91.6 23.4 Z"/><path d=" M 51.2 44.2 C 50.4 42.8 48.6 42.2 47.2 42.8 L 41.6 45.6 L 37 38 C 36.6 37.4 36 36.8 35.2 36.6 L 21.2 32.6 C 20.2 32.4 19 32.6 18.2 33.4 L 12.6 39 L 8.6 33.8 C 8 32.4 6 32.2 4.6 33 C 3.4 34 3.2 36 4 37.2 L 10 45.2 C 10.6 45.8 11.4 46.4 12.2 46.4 C 13 46.4 14 46.2 14.6 45.6 L 20.4 39.8 L 16.8 53.4 C 16.6 54 16.4 54.8 16.4 55.4 C 16.4 56.6 16.8 57.8 17.6 58.8 L 23.2 67.8 L 19.6 80.6 C 19.2 82.2 20 83.8 21.6 84.4 C 21.8 84.4 22.2 84.6 22.4 84.6 C 23.8 84.6 25 83.8 25.2 82.4 L 29.2 68.4 C 29.4 67.6 29.4 66.6 28.8 66 L 25.4 60.6 L 33.4 65.4 L 33.4 79.8 C 33.4 81.4 34.8 82.8 36.4 82.8 C 38 82.8 39.4 81.4 39.4 79.8 L 39.4 63.8 C 39.4 62.8 38.8 61.8 38 61.2 L 29.4 56 L 33.2 43.6 L 37.8 51.2 C 38.4 52.2 39.4 52.6 40.4 52.6 C 40.8 52.6 41.4 52.4 41.8 52.2 L 49.8 48.2 C 51.4 47.4 52 45.6 51.2 44.2 Z"/></svg>