<svg version="1.1" viewBox="0 0 96 96" xmlns="http://www.w3.org/2000/svg" xmlns:xlink="http://www.w3.org/1999/xlink" id="Icons_EarthGlobeAsiaAustralia" overflow="hidden"><g><path d=" M 48 10 C 27 10 10 27 10 48 C 10 69 27 86 48 86 C 69 86 86 69 86 48 C 86 27 69 10 48 10 Z M 48 82 C 29.3 82 14 66.7 14 48 C 14 47.5 14 47.1 14 46.6 L 15.4 44.8 C 15.8 44.3 16.4 44 17 44 L 20.4 44 C 20.8 44 21.1 44.2 21.3 44.6 L 24.9 51.8 C 25 52 25.1 52.1 25.2 52.2 L 26.4 53 C 27.1 53.4 28 53 28 52.2 L 28 48.9 C 28 48.4 28.2 47.9 28.6 47.5 L 31.2 44.9 C 31.6 44.5 32.3 44.5 32.7 45 L 35.7 48.8 C 35.9 49 36.2 49.2 36.5 49.2 L 37.2 49.2 C 37.7 49.2 38.2 49.4 38.6 49.8 L 39.4 50.6 C 39.8 51 40.3 51.2 40.8 51.2 L 41 51.2 C 41.6 51.2 42 50.8 42 50.2 L 42 47.8 C 42 47.4 41.8 47.1 41.4 46.9 L 40.5 46.5 C 40.2 46.3 39.9 46 39.9 45.6 L 39.9 44 C 39.9 43.4 40.3 43 40.9 43 L 43.4 43 C 43.7 43 44 42.8 44.2 42.6 L 45.6 40.5 C 45.8 40.2 45.9 39.8 45.9 39.4 L 45.9 37.3 C 45.9 37.1 45.9 37 45.8 36.8 L 45.1 33.8 C 45 33.3 45.2 32.9 45.6 32.7 L 46.1 32.5 C 46.6 32.3 47.1 32.4 47.4 32.8 C 47.4 32.8 48.3 34.7 48.9 35.1 C 49.1 35.2 49.7 35.3 49.9 35.1 C 50.5 34.5 50.3 32.5 50.1 31.2 C 50 30.5 50.3 29.8 50.9 29.3 L 53.5 27.3 C 53.8 27.1 53.9 26.8 53.9 26.5 L 53.9 26 C 53.9 25.4 54.3 25 54.9 25 C 55.5 25 55.9 24.6 55.9 24 L 55.9 23.8 C 55.9 23.3 55.6 22.9 55.1 22.8 L 53.3 22.4 C 52.6 22.2 52.3 21.4 52.7 20.8 L 53.9 19.2 C 54.5 18.4 55.4 18 56.3 18 L 59.4 18 C 60.2 18 60.9 17.5 61.2 16.8 C 73.5 22 82 34 82 48 C 82 66.7 66.7 82 48 82 Z"/><path d=" M 65.1 68.4 C 65 68.2 64.9 67.9 64.7 67.7 L 60.8 61.8 C 60.3 61 59 61.3 59 62.3 L 59 63 C 59 63.6 58.6 64 58 64 L 57.6 64 C 57.2 64 56.9 63.8 56.7 63.4 L 55.9 61.7 C 55.5 61 54.5 61 54.1 61.7 L 53.3 62.6 C 53.1 62.8 52.8 62.9 52.6 62.9 L 51.9 62.9 C 51.4 62.9 50.9 63.1 50.5 63.5 L 46.5 66.7 C 45.7 67.4 45.5 68.6 46.1 69.4 L 48.7 73.7 C 49.4 74.8 50.9 75 51.8 74.1 L 53.7 72.2 C 54.4 71.5 55.6 71.4 56.4 72.1 L 59.7 74.8 C 59.9 74.9 60.1 75 60.3 75 L 63 75 C 63.6 75 64 74.6 64 74 L 64 72.6 C 64 72.2 64.2 71.9 64.6 71.7 L 65.3 71.4 C 65.7 71.2 66 70.7 65.8 70.2 L 65.1 68.4 Z"/><path d=" M 54 55 L 56.5 58.3 C 56.8 58.7 57.3 58.8 57.7 58.6 L 59 58 L 60.7 58.6 C 61.3 58.8 62 58.3 62 57.7 L 62 57.7 C 62 57.3 61.8 57 61.5 56.8 L 57.2 54.2 C 57.1 54 56.9 54 56.7 54 L 54 54 L 54 55 Z"/><path d=" M 46.3 55.8 L 46.9 53.6 C 47 53.3 46.9 52.9 46.6 52.7 C 46.3 52.4 45.7 52.3 45.3 52.6 L 43.3 54.1 C 42.7 54.5 42.8 55.5 43.5 55.8 L 44.9 56.5 C 45.5 56.7 46.1 56.4 46.3 55.8 Z"/><path d=" M 36.7 53.5 C 36.3 53.2 35.8 53.3 35.4 53.6 L 35 54 L 40.9 58.9 C 41 59 41.1 59 41.2 59.1 L 43.4 59.8 C 43.8 59.9 44.2 59.8 44.4 59.6 L 45 59 C 40.8 57.8 36.7 53.5 36.7 53.5 Z"/><path d=" M 51 38 C 53.7 36.2 56.8 34.1 56 31 C 55.9 30.8 55.1 30.8 55 31 C 54.6 32.8 54.2 34.3 50 37 C 49.8 37.2 50.6 38.2 51 38 Z"/></g></svg>