<svg version="1.1" viewBox="0 0 96 96" xmlns="http://www.w3.org/2000/svg" xmlns:xlink="http://www.w3.org/1999/xlink" id="Icons_Recycle" overflow="hidden"><path d=" M 82 14 L 14 14 C 11.8 14 10 15.8 10 18 C 10 20.2 11.8 22 14 22 L 15.5 22 L 25 78.8 C 25.4 80.7 27 82 28.9 82 L 66.9 82 C 68.8 82 70.5 80.6 70.8 78.8 L 80.5 22 L 82 22 C 84.2 22 86 20.2 86 18 C 86 15.8 84.2 14 82 14 Z M 32 59 C 32.4 59.6 33.1 60 33.9 60 L 39.9 60 L 39.9 64 L 33.9 64 C 31.7 64 29.6 62.8 28.5 60.9 C 27.5 59 27.5 56.9 28.7 54.9 L 33.8 46.1 L 30.4 44.2 L 38.6 42 L 40.8 50.2 L 37.2 48.1 L 32.2 57 C 31.7 57.7 31.6 58.4 32 59 Z M 40 36.3 L 43 31.1 C 44.1 29.2 46.1 27.9 48.3 28 C 50.4 28 52.3 29.2 53.4 31.2 L 58.5 40 L 61.9 38.1 L 59.7 46.3 L 51.5 44.1 L 55 42 L 49.9 33.1 C 49.5 32.3 48.9 32 48.3 31.9 C 47.6 31.9 46.9 32.3 46.5 33 L 43.5 38.2 L 40 36.3 Z M 67.4 61.3 C 66.3 63.1 64.5 64.1 62.3 64.1 C 62.2 64.1 62.2 64.1 62.1 64.1 L 51.9 64.1 L 51.9 68 L 45.9 62 L 51.9 56 L 51.9 60.1 L 62.1 60.1 C 63 60.1 63.6 59.8 63.9 59.3 C 64.3 58.7 64.2 57.9 63.8 57.2 L 60.8 52 L 64.3 50 L 67.3 55.2 C 67.6 55.7 67.8 56.1 67.9 56.6 L 68.3 56.8 L 68 56.9 C 68.4 58.4 68.2 60 67.4 61.3 Z"/></svg>