<svg version="1.1" viewBox="0 0 96 96" xmlns="http://www.w3.org/2000/svg" xmlns:xlink="http://www.w3.org/1999/xlink" id="Icons_Globe" overflow="hidden"><path d=" M 81 25.6 C 76.7 15.7 68.9 8 58.8 4 L 57.3 7.7 C 66.3 11.3 73.4 18.2 77.3 27.2 C 81.1 36.2 81.3 46.1 77.7 55.1 C 74.1 64.1 67.2 71.2 58.2 75.1 C 49.2 78.9 39.3 79.1 30.3 75.5 L 28.8 79.2 C 32.5 80.7 36.4 81.6 40.3 81.9 L 40.3 85.8 L 20.3 85.8 L 20.3 91.8 L 68.3 91.8 L 68.3 85.8 L 48.3 85.8 L 48.3 81.8 C 52.2 81.4 56 80.3 59.8 78.8 C 69.8 74.5 77.4 66.7 81.4 56.6 C 85.4 46.5 85.3 35.6 81 25.6 Z"/><circle cx="44" cy="41.6" r="32.5"/></svg>