<svg version="1.1" viewBox="0 0 96 96" xmlns="http://www.w3.org/2000/svg" xmlns:xlink="http://www.w3.org/1999/xlink" id="Icons_EarthGlobeAmericas" overflow="hidden"><g><path d=" M 48 10 C 27 10 10 27 10 48 C 10 69 27 86 48 86 C 69 86 86 69 86 48 C 86 27 69 10 48 10 Z M 14 48 C 14 39.1 17.4 31.1 23 25 C 23.9 25.5 24.8 26.3 25 27 L 25 33.3 C 25 33.7 25.1 34.2 25.4 34.5 L 32 43 L 32.5 42.5 C 32.8 42.2 32.9 41.7 32.7 41.3 L 31.5 39.3 C 31 38.5 31.8 37.5 32.7 37.8 C 33 37.9 33.2 38.1 33.3 38.3 L 36.6 44.8 C 37 45.5 37.6 46.1 38.3 46.3 L 42.7 47.8 C 43 47.9 43.2 48.1 43.3 48.3 L 43.6 48.8 C 43.9 49.5 44.6 49.9 45.4 49.9 L 46.6 49.9 C 46.9 49.9 47.2 50.1 47.4 50.3 L 48.7 52.2 C 49 52.6 49.4 52.9 49.9 53 L 52 53.5 C 52.6 53.6 52.9 54.3 52.7 54.8 C 52.7 54.8 51.1 56.4 51.1 58.7 C 51.1 65.3 57.1 67.2 57.1 68.7 C 57.1 72.8 56.5 78.5 56.2 80.7 C 53.6 81.3 50.9 81.7 48.1 81.7 C 29.3 82 14 66.7 14 48 Z M 60.8 79.5 C 63 77.6 66.7 74.4 68 73 C 69.7 71.1 70 68 70 68 C 70 68 77 66.1 77 61 C 77 57.5 70 56 70 56 C 68.8 52.1 62.9 50 58 50 C 56.9 50 53 52 53 52 L 51 51 L 51 48 C 51 47.4 50.6 47 50 47 L 48 47 L 48 44 C 48 43.4 47.6 43 47 43 L 46 43 L 44.9 43.7 C 43.9 44.4 42.5 44 42 42.9 C 42 42.9 41 41.5 41 40.9 C 41 36.6 46 36.9 46 36.9 L 48.2 36.9 C 48.7 36.9 49.1 37.2 49.2 37.7 L 49.8 40.2 C 49.9 40.6 50.3 41 50.8 41 L 51.2 41 C 51.7 41 52.1 40.7 52.2 40.2 L 52.9 36.5 C 53 36.2 53.1 35.9 53.3 35.6 L 56.1 32.1 C 56.7 31.4 57.5 31 58.4 31 L 61 31 C 61.6 31 62 30.6 62 30 L 62 29 L 61.7 28.7 C 61.1 28.1 61.5 27 62.4 27 L 63 27 C 63.6 27 64 27.4 64 28 C 64 28.6 64.4 29 65 29 L 66 29 L 66.6 26.4 C 66.8 25.5 66.4 24.7 65.7 24.2 L 57.2 19.1 C 57.1 19 56.9 19 56.7 19 L 55 19 C 53.9 19 53 19.9 53 21 L 53 22 C 53 22.6 52.6 23 52 23 L 51 23 L 50 22 L 47 22 C 46.4 22 46 21.6 46 21 L 46 18.5 C 46 18.2 46.1 17.9 46.4 17.7 L 52.8 15 L 53.8 16.7 C 54 16.9 54.2 17 54.5 17 L 57 17 C 57.6 17 58 16.6 58 16 L 58 15.5 C 71.9 19.8 82 32.7 82 48 C 82 62.2 73.2 74.4 60.8 79.5 Z"/><path d=" M 60.3 43.8 L 55.5 42.2 C 55.1 42.1 54.8 42.1 54.4 42.2 L 51 43 C 50.7 43.2 50.6 43.6 51 44 L 55.6 44 C 55.9 44 56.1 44 56.3 44.1 L 59.8 45.5 C 60.4 45.7 61 45.3 61 44.7 C 61 44.3 60.7 43.9 60.3 43.8 Z"/></g></svg>