<svg version="1.1" viewBox="0 0 96 96" xmlns="http://www.w3.org/2000/svg" xmlns:xlink="http://www.w3.org/1999/xlink" id="Icons_Calculator" overflow="hidden"><path d=" M 66 34 L 30 34 L 30 18 L 66 18 L 66 34 Z M 66 48 L 60 48 L 60 42 L 66 42 L 66 48 Z M 66 58 L 60 58 L 60 52 L 66 52 L 66 58 Z M 66 68 L 60 68 L 60 62 L 66 62 L 66 68 Z M 66 78 L 60 78 L 60 72 L 66 72 L 66 78 Z M 56 48 L 50 48 L 50 42 L 56 42 L 56 48 Z M 56 58 L 50 58 L 50 52 L 56 52 L 56 58 Z M 56 68 L 50 68 L 50 62 L 56 62 L 56 68 Z M 56 78 L 50 78 L 50 72 L 56 72 L 56 78 Z M 46 48 L 40 48 L 40 42 L 46 42 L 46 48 Z M 46 58 L 40 58 L 40 52 L 46 52 L 46 58 Z M 46 68 L 40 68 L 40 62 L 46 62 L 46 68 Z M 46 78 L 30 78 L 30 72 L 46 72 L 46 78 Z M 30 62 L 36 62 L 36 68 L 30 68 L 30 62 Z M 30 52 L 36 52 L 36 58 L 30 58 L 30 52 Z M 30 42 L 36 42 L 36 48 L 30 48 L 30 42 Z M 72 8 L 24 8 C 21.8 8 20 9.8 20 12 L 20 84 C 20 86.2 21.8 88 24 88 L 72 88 C 74.2 88 76 86.2 76 84 L 76 12 C 76 9.8 74.2 8 72 8 Z"/></svg>