<svg version="1.1" viewBox="0 0 96 96" xmlns="http://www.w3.org/2000/svg" xmlns:xlink="http://www.w3.org/1999/xlink" id="Icons_Guitar" overflow="hidden"><g><path d=" M 84.8 11.2 C 82.4 8.8 80.6 8.4 80.6 8.4 L 72.1 18.3 L 72.4 20.6 L 46.7 43.9 C 38.6 36.9 35.4 39.7 33.3 41.6 C 31.3 43.3 31.9 47.3 29.8 49.4 C 26.4 52.8 18.5 49.4 12.1 55.8 C 1.7 66 12 76.9 15.5 80.5 C 19.1 84 30 94.3 40.3 84 C 46.7 77.6 43.3 69.7 46.7 66.3 C 48.8 64.2 52.7 64.7 54.5 62.8 C 56.4 60.7 59.2 57.5 52.2 49.4 L 75.6 23.6 L 77.9 23.9 L 87.8 15.4 C 87.6 15.4 87.2 13.5 84.8 11.2 Z M 33.2 69.8 L 26.1 62.7 L 28.9 59.9 L 36 67 L 33.2 69.8 Z M 42.4 60.7 C 40.4 62.7 37.3 62.7 35.3 60.7 C 33.3 58.7 33.3 55.6 35.3 53.6 C 37.3 51.6 40.4 51.6 42.4 53.6 C 44.4 55.5 44.4 58.7 42.4 60.7 Z"/><circle cx="76.4" cy="9" r="1.5"/><circle cx="87" cy="19.6" r="1.5"/><circle cx="72.8" cy="12.6" r="1.5"/><circle cx="83.4" cy="23.2" r="1.5"/></g></svg>