<svg version="1.1" viewBox="0 0 96 96" xmlns="http://www.w3.org/2000/svg" xmlns:xlink="http://www.w3.org/1999/xlink" id="Icons_SmallPaintBrush" overflow="hidden"><path d=" M 88.1 9.4 C 86 7.3 83.6 7.9 82.7 8.8 L 42.3 46.2 L 33.3 57.3 C 32.7 58.4 33.3 60.3 34.7 61.7 L 35.6 62.6 C 37 64 38.9 64.7 40 64 L 51.1 55 L 88.7 14.6 C 89.7 13.5 90.1 11.5 88.1 9.4 Z"/><path d=" M 16.3 65.7 C 13.2 68.9 14.1 72.7 13.6 76.4 C 13 82.8 7.9 84.9 6.5 85.4 C 14.7 91.5 25.6 87 31.6 81 C 35.8 76.8 35.8 69.9 31.6 65.7 C 27.4 61.5 20.5 61.5 16.3 65.7 Z"/></svg>